<?xml version="1.0" encoding="UTF-8"?>
<svg id="_Слой_2" data-name="Слой 2" xmlns="http://www.w3.org/2000/svg" viewBox="0 0 200 200">
  <defs>
    <style>
      .cls-1 {
        fill: #fff;
      }

      .cls-2 {
        fill: #f5b215;
      }

      .cls-3 {
        fill: #ee8b0a;
      }

      .cls-4 {
        fill: #fcce16;
      }

      .cls-5 {
        fill: #bb1c23;
      }

      .cls-6 {
        fill: #f6e828;
      }

      .cls-7 {
        fill: #1d1d1b;
        font-family: MyriadPro-Regular, 'Myriad Pro';
        font-size: 37px;
      }

      .cls-8 {
        fill: #fcdd14;
      }

      .cls-9 {
        fill: #dd5a15;
      }
    </style>
  </defs>
  <g id="_Слой_1-2" data-name="Слой 1">
    <g>
      <g>
        <circle class="cls-5" cx="100" cy="100" r="100"/>
        <path class="cls-9" d="m67.87,22.38c4.08-3.98,10.42-9.18,19.28-13.1,4.59-2.03,8.87-3.29,12.54-4.08,3.44.66,7.36,1.72,11.56,3.41,9.71,3.92,16.59,9.54,20.89,13.77,4.56.1,10.63.69,17.51,2.65,6.77,1.93,12.16,4.59,16.06,6.87,2.11,2.55,4.35,5.75,6.31,9.66,5.3,10.56,5.7,20.6,5.44,26.39,2.83,2.91,6.02,6.69,9,11.46,4.89,7.83,7.31,15.26,8.58,20.66-.62,3.16-1.56,6.69-3.03,10.44-3.93,10.07-9.81,17.16-14.22,21.55-.13,4.58-.74,10.55-2.65,17.27-2.19,7.72-5.33,13.77-7.96,18-4.03,2.54-9.89,5.63-17.43,7.77-6.94,1.96-13.05,2.48-17.59,2.53-3.41,3.36-8.61,7.74-15.79,11.43-6.26,3.22-12.01,4.89-16.36,5.79-4.61-.92-11.08-2.74-18.09-6.58-6.38-3.5-11.07-7.49-14.24-10.64-4.51.05-11.14-.39-18.73-2.81-7.24-2.31-12.7-5.6-16.29-8.15-2.43-3.77-5.35-9.14-7.48-16.01-2.31-7.42-2.88-13.95-2.94-18.63-3.29-3.43-7.46-8.47-11.08-15.28-3.4-6.39-5.22-12.27-6.25-16.74,1.22-4.93,3.38-11.48,7.39-18.51,3.28-5.76,6.88-10.23,9.95-13.52-.03-5.51.63-13.63,4.07-22.67,1.9-5,4.21-9.11,6.35-12.32,3.96-2.57,9.79-5.75,17.34-7.96,7.09-2.08,13.33-2.61,17.89-2.65Z"/>
        <path class="cls-3" d="m99.94,31.36c3.46-2.16,8.37-4.73,14.61-6.57,7.05-2.08,13.22-2.48,17.59-2.42,2.98,2.78,7.03,7.17,10.5,13.41,3.42,6.15,5.02,11.82,5.81,15.79,3.84.73,9.27,2.21,15.16,5.42,6.58,3.58,11.1,7.89,13.85,10.96.17,3.89-.01,9.11-1.41,15.06-1.76,7.56-4.78,13.32-7.14,17.07,2.04,3.5,4.3,8.13,6.04,13.82,2.18,7.15,2.77,13.49,2.84,18.16-3.03,3.17-7.64,7.31-14.05,10.89-5.7,3.19-10.98,4.91-14.97,5.89-.84,3.95-2.51,9.64-6.06,15.77-3.52,6.07-7.57,10.33-10.55,13.01-3.97.27-10.06.21-17.12-1.77-6.79-1.91-11.87-4.87-15.09-7.09-3.2,2.16-7.93,4.85-14.08,6.71-7.46,2.26-13.95,2.4-18.19,2.15-2.62-2.74-5.52-6.21-8.27-10.48-4.37-6.77-6.86-13.21-8.34-18.17-4.44-1.16-10.52-3.27-16.99-7.31-5.17-3.22-9.06-6.73-11.84-9.63-.02-4.18.39-9.9,2.18-16.42,1.84-6.68,4.49-11.9,6.69-15.52-1.94-3.5-4-7.91-5.65-13.18-2.31-7.36-3.05-13.93-3.22-18.92,3-3.14,7.54-7.22,13.83-10.78,5.71-3.24,11.01-5,15-6,1.47-4.92,3.95-11.29,8.27-18.02,2.85-4.43,5.85-8,8.54-10.8,4.13-.02,9.73.37,16.09,2.08,6.91,1.86,12.29,4.63,15.98,6.9Z"/>
        <path class="cls-2" d="m78.97,50.42c2.47-3.35,5.84-7.31,10.29-11.24,3.79-3.35,7.48-5.9,10.67-7.82,2.86,1.59,6.17,3.74,9.57,6.66,5.07,4.34,8.56,8.85,10.89,12.4,3.66-.84,8.77-1.6,14.84-1.26,5.38.3,9.87,1.36,13.2,2.42,1.02,3.35,2,7.66,2.36,12.75.43,6.17-.2,11.41-.97,15.28,2.91,1.97,6.3,4.63,9.73,8.15,4.3,4.41,7.3,8.79,9.35,12.33-1.76,3.11-4.31,6.94-7.96,10.85-4.2,4.49-8.45,7.57-11.76,9.61.79,3.21,1.47,7.23,1.59,11.87.18,6.75-.9,12.39-2.02,16.44-3.91,1.04-9.08,2.01-15.19,2.1-5.18.08-9.67-.49-13.23-1.2-2.08,3.13-5.08,7-9.25,10.86-4.02,3.72-7.96,6.35-11.15,8.16-3.24-1.73-7.43-4.37-11.68-8.35-4.08-3.82-6.92-7.65-8.84-10.67-3.91.9-9.29,1.69-15.66,1.36-5.05-.27-9.36-1.17-12.69-2.13-.91-3.65-1.72-8.2-1.96-13.47-.26-5.83.26-10.88.95-14.84-3.32-2.34-7.32-5.62-11.29-10.07-3.34-3.74-5.82-7.39-7.66-10.5,1.8-3.19,4.4-7.12,8.08-11.15,3.86-4.21,7.73-7.23,10.86-9.33-.54-4.02-.89-8.85-.69-14.31.2-5.4.89-10.15,1.71-14.1,3.51-1.03,8.31-2.05,14.08-2.19,5.6-.14,10.34.61,13.83,1.42Z"/>
        <path class="cls-4" d="m149.89,79.58c-.61,2.98-1.59,6.54-3.17,10.41-1.54,3.78-3.28,6.94-4.89,9.47,1.71,2.59,3.74,6.21,5.27,10.83,1.3,3.91,1.88,7.44,2.13,10.22-2.26,1.81-5.32,3.93-9.2,5.81-3.93,1.9-7.54,2.99-10.4,3.64-.97,3.75-2.53,8.28-5.1,13.09-1.35,2.52-2.77,4.74-4.15,6.66-2.83-.58-6-1.41-9.41-2.62-4.32-1.53-8-3.31-11.02-5.01-2.3,1.39-5.05,2.83-8.23,4.12-4.59,1.87-8.8,2.91-12.27,3.51-2.2-3.23-4.55-7.23-6.6-12-1.19-2.76-2.11-5.38-2.84-7.8-3.53-1.01-7.65-2.49-12.05-4.68-2.99-1.5-5.62-3.08-7.88-4.6.62-3.34,1.63-7.3,3.3-11.61,1.33-3.42,2.82-6.38,4.25-8.86-1.76-3.29-3.56-7.22-5.12-11.79-1.07-3.14-1.85-6.1-2.43-8.8,2.89-1.85,6.24-3.78,10.05-5.61,3.51-1.69,6.84-3.02,9.87-4.07,1.22-3.67,2.81-7.71,4.89-11.97,1.34-2.74,2.73-5.25,4.11-7.53,2.92.41,6.54,1.18,10.52,2.64,4.32,1.58,7.81,3.51,10.42,5.21,2.95-1.86,6.81-3.92,11.56-5.56,3.27-1.13,6.3-1.84,8.94-2.29,1.74,2.43,3.66,5.48,5.4,9.16,1.88,3.95,3.07,7.61,3.85,10.66,2.72.77,5.76,1.8,8.98,3.21,4.46,1.94,8.19,4.13,11.19,6.16Z"/>
        <path class="cls-8" d="m70.28,69.79c2.45-.76,5.53-1.5,9.11-1.85,2.85-.28,5.41-.26,7.58-.11,1.72-1.8,3.94-3.83,6.73-5.81,2.33-1.66,4.56-2.92,6.52-3.88,2.41,1.32,5.15,3.05,7.97,5.32,1.84,1.48,3.43,2.97,4.8,4.37,2.53.03,5.39.2,8.49.61,3.16.42,6,1.02,8.49,1.67.39,1.54.74,3.17,1.05,4.88.74,4.21,1.03,8.1,1.05,11.54,1.55,1.66,3.14,3.49,4.75,5.5,2.02,2.53,3.77,5,5.28,7.32-.93,2.01-2.17,4.3-3.82,6.71-2.01,2.93-4.09,5.25-5.92,7.03.01,2.59-.15,5.61-.66,8.95-.46,2.95-1.1,5.57-1.78,7.82-2.2.7-4.9,1.39-8.02,1.8-3.22.43-6.08.47-8.45.35-1.7,1.79-3.85,3.79-6.51,5.76-2.39,1.78-4.69,3.15-6.71,4.22-2.73-1.42-5.86-3.34-9.06-5.96-1.66-1.36-3.11-2.72-4.38-4.02-2.73.12-6.07.03-9.81-.58-2.52-.41-4.76-.99-6.69-1.61-.7-1.92-1.39-4.27-1.83-7.01-.59-3.64-.57-6.83-.36-9.31-2.01-1.85-4.3-4.28-6.51-7.37-1.53-2.14-2.73-4.21-3.68-6.06,1.12-2.08,2.59-4.47,4.53-6.96,1.95-2.51,3.91-4.53,5.65-6.13-.12-2.82-.04-6.22.55-10.03.42-2.69,1.01-5.08,1.64-7.15Z"/>
        <path class="cls-6" d="m67.87,87.12c1.24-1.44,2.87-3.12,4.97-4.77,2.23-1.76,4.37-3,6.15-3.88.87-1.71,2.03-3.69,3.58-5.76,1.43-1.91,2.88-3.47,4.18-4.73,2.37,0,5,.14,7.83.47,2.01.24,3.89.56,5.62.92,1.77-.45,3.83-.85,6.12-1.11,2.39-.27,4.56-.33,6.45-.28.96.87,1.94,1.81,2.93,2.84,2.51,2.62,4.51,5.24,6.1,7.64,1.63,1.12,3.36,2.39,5.13,3.84,1.82,1.49,3.46,2.96,4.91,4.37.14,1.23.23,2.57.23,4,.01,3.66-.52,6.84-1.18,9.39.38,2.35.7,4.88.93,7.56.16,1.95.26,3.82.3,5.61-1.39,1.44-3,2.96-4.84,4.49-1.64,1.36-3.23,2.54-4.73,3.56-1.47,1.99-3.12,4.07-4.99,6.21-1.48,1.69-2.94,3.24-4.36,4.66-2.29.05-4.91-.05-7.78-.43-1.89-.25-3.64-.59-5.23-.96-2.01.36-4.18.68-6.48.92-2.54.27-4.93.41-7.16.47-1.31-1.34-2.72-2.95-4.12-4.82-1.4-1.87-2.53-3.66-3.45-5.28-2.08-1.29-4.31-2.81-6.6-4.59-1.65-1.29-3.15-2.57-4.52-3.81-.01-2.56.11-5.38.47-8.43.21-1.82.49-3.53.8-5.14-.62-2.27-1.16-5.07-1.32-8.29-.08-1.68-.05-3.24.06-4.66Z"/>
        <path class="cls-1" d="m78.97,78.46c2.56-1.71,5.72-3.55,9.47-5.21,4.37-1.94,8.4-3.13,11.75-3.88,3.13.75,6.71,1.82,10.58,3.41,4.37,1.79,8.04,3.81,11.02,5.68,1.79,3,3.67,6.56,5.39,10.68,1.65,3.96,2.84,7.65,3.71,10.92-1.08,3.63-2.41,7.53-4.05,11.63-1.39,3.46-2.84,6.66-4.29,9.59-3.03,1.74-6.51,3.53-10.42,5.21-4.29,1.84-8.32,3.22-11.94,4.26-3.23-.64-7.17-1.7-11.46-3.51-3.92-1.65-7.18-3.51-9.76-5.21-1.89-2.82-3.92-6.3-5.78-10.42-1.92-4.25-3.2-8.19-4.07-11.56.75-3.66,2.12-8.35,4.69-13.41,1.66-3.27,3.48-6,5.16-8.19Z"/>
      </g>
    </g>
  </g>
</svg>