<?xml version="1.0" encoding="UTF-8"?>
<svg id="_Слой_2" data-name="Слой 2" xmlns="http://www.w3.org/2000/svg" viewBox="0 0 101 101">
  <defs>
    <style>
      .cls-1 {
        stroke: #000;
      }

      .cls-1, .cls-2 {
        fill: none;
        stroke-linecap: round;
        stroke-miterlimit: 10;
      }

      .cls-2 {
        stroke: #9272b0;
        stroke-width: 10px;
      }
    </style>
  </defs>
  <g id="_Слой_1-2" data-name="Слой 1">
    <g id="_Слой_1-2" data-name=" Слой 1-2">
      <path class="cls-2" d="m53.91,49.77c-4.07-1.96-8.63-.83-10.88,2.33-2.73,3.85-.85,9.09,1.39,11.67,4.19,4.8,12.77,3.91,17.57,0,7.07-5.76,7.13-19.03,1.95-24.8-7.72-8.6-30.56-4.46-36.81,10.21-4,9.4-.15,20.71,5.86,27.14,11.03,11.83,32.82,10.99,44.3-1.99,9.02-10.19,9.44-25.34,4.78-36.52-7.44-17.83-25.89-20.88-27.49-21.11-14.94-2.19-30.23,6.04-38.6,20.82"/>
    </g>
    <rect class="cls-1" x=".5" y=".5" width="100" height="100"/>
  </g>
</svg>