<?xml version="1.0" encoding="UTF-8"?>
<svg id="_Слой_2" data-name="Слой 2" xmlns="http://www.w3.org/2000/svg" viewBox="0 0 101 101">
  <defs>
    <style>
      .cls-1 {
        stroke: #000;
      }

      .cls-1, .cls-2 {
        fill: none;
        stroke-linecap: round;
        stroke-miterlimit: 10;
      }

      .cls-2 {
        stroke: #e42220;
        stroke-width: 11px;
      }
    </style>
  </defs>
  <g id="_Слой_1-2" data-name="Слой 1">
    <g id="_Слой_1-2" data-name=" Слой 1-2">
      <path class="cls-2" d="m29.91,80.06c-6.34-4.28-8.06-8.34-8.52-11.17-1.79-11.29,14.29-18.29,14.62-32.47.15-6.62-3.19-12.1-5.93-15.6"/>
      <path class="cls-2" d="m51.77,80.13c-6.34-4.28-8.06-8.34-8.52-11.17-1.79-11.29,14.29-18.29,14.62-32.47.15-6.62-3.19-12.1-5.93-15.6"/>
      <path class="cls-2" d="m73.63,80.19c-6.34-4.28-8.06-8.34-8.52-11.17-1.79-11.29,14.29-18.29,14.62-32.47.15-6.62-3.19-12.1-5.93-15.6"/>
    </g>
    <rect class="cls-1" x=".5" y=".5" width="100" height="100"/>
  </g>
</svg>