<?xml version="1.0" encoding="UTF-8"?>
<svg id="_Слой_2" data-name="Слой 2" xmlns="http://www.w3.org/2000/svg" viewBox="0 0 101 101">
  <defs>
    <style>
      .cls-1 {
        stroke: #000;
      }

      .cls-1, .cls-2 {
        fill: none;
        stroke-linecap: round;
        stroke-miterlimit: 10;
      }

      .cls-2 {
        stroke: #507fc1;
        stroke-width: 9px;
      }
    </style>
  </defs>
  <g id="_Слой_1-2" data-name="Слой 1">
    <g id="_Слой_1-2" data-name=" Слой 1-2">
      <path class="cls-2" d="m21.65,30.22c4.15-6.28,8.1-8,10.86-8.45,10.99-1.8,17.85,14.08,31.66,14.36,6.45.13,11.77-3.19,15.17-5.91"/>
      <path class="cls-2" d="m21.65,51.84c4.15-6.28,8.1-8,10.86-8.45,10.99-1.8,17.85,14.08,31.66,14.36,6.45.13,11.77-3.19,15.17-5.91"/>
      <path class="cls-2" d="m21.65,73.45c4.15-6.28,8.1-8,10.86-8.45,10.99-1.8,17.85,14.08,31.66,14.36,6.45.13,11.77-3.19,15.17-5.91"/>
    </g>
    <rect class="cls-1" x=".5" y=".5" width="100" height="100"/>
  </g>
</svg>